<svg width="48" height="48" viewBox="0 0 48 48" fill="none" xmlns="http://www.w3.org/2000/svg">
<path d="M0 7.5C0 3.35786 3.35786 0 7.5 0H40.5C44.6422 0 48 3.35786 48 7.5V40.5C48 44.6422 44.6422 48 40.5 48H7.5C3.35786 48 0 44.6422 0 40.5V7.5Z" fill="#625FD0"/>
<path d="M20.1329 21.5324C18.7923 21.5324 17.6653 22.057 16.9464 22.9313V17.5492C16.9464 16.9275 16.5189 16.5 15.936 16.5C15.3531 16.5 14.9062 16.9469 14.9062 17.5492V30.4508C14.9062 31.0531 15.3337 31.5 15.936 31.5C16.4995 31.5 16.927 31.0725 16.927 30.4508V30.476C17.6459 31.3504 18.7923 31.5 20.1524 31.5C22.8337 31.5 24.8156 29.4016 24.8156 26.5259C24.8156 23.6503 22.8337 21.5324 20.1329 21.5324ZM19.8026 29.6347C18.0928 29.6347 16.927 28.3718 16.927 26.5259C16.927 24.6606 18.0733 23.3977 19.8026 23.3977C21.493 23.3977 22.7171 24.7189 22.7171 26.5065C22.7171 28.3135 21.493 29.6347 19.8026 29.6347Z" fill="#EDEDFA"/>
<path d="M32.138 29.6347C31.9631 29.6347 31.7882 29.6541 31.5551 29.6541C30.2532 29.6541 29.6898 29.1684 29.6898 28.0026V23.5142H31.7299C32.2545 23.5142 32.6431 23.1451 32.6431 22.6399C32.6431 22.1347 32.2545 21.7461 31.7299 21.7461H29.6898V20.0751C29.6898 19.4728 29.2429 19.0259 28.66 19.0259C28.0771 19.0259 27.6302 19.4922 27.6302 20.0751V21.7461H26.8724C26.3672 21.7461 25.9592 22.1347 25.9592 22.6399C25.9592 23.1451 26.3672 23.5142 26.8724 23.5142H27.6302V28.1775C27.6302 30.3342 28.8737 31.5 31.147 31.5C31.6911 31.5 32.0991 31.4417 32.4294 31.3057C32.818 31.1697 33.0317 30.8782 33.0317 30.4508C33.0317 29.965 32.682 29.6347 32.138 29.6347Z" fill="#EDEDFA"/>
</svg>
