<svg width="39" height="40" viewBox="0 0 39 40" fill="none" xmlns="http://www.w3.org/2000/svg">
<rect width="39" height="40" fill="white"/>
<mask id="path-1-inside-1" fill="white">
<path d="M35.1818 19.0554C35.1818 19.6178 35.1818 20.181 35.1818 20.7433C35.1362 21.1648 35.1028 21.589 35.0405 22.0078C34.9572 22.5693 34.8668 23.1298 34.7501 23.6842C34.6606 24.1119 34.5465 24.5369 34.407 24.9505C34.2368 25.4543 34.0464 25.9529 33.8314 26.4382C33.5813 27.0023 33.3277 27.5708 33.0171 28.1021C32.4678 29.0399 31.8676 29.9502 31.1007 30.7251C30.49 31.3423 29.8705 31.956 29.2054 32.5103C28.6912 32.9389 28.105 33.2825 27.5391 33.6456C27.1732 33.8803 26.7967 34.1008 26.4072 34.2929C25.9035 34.5409 25.3937 34.7871 24.8663 34.9739C24.2328 35.1988 23.5852 35.3883 22.9315 35.5433C21.7592 35.8205 20.5676 35.9622 19.3594 35.9445C18.1888 35.9268 17.0288 35.7966 15.8986 35.5088C14.8694 35.2467 13.8383 34.9668 12.8977 34.4346C12.2519 34.0698 11.5736 33.7598 10.9445 33.3693C10.4698 33.0753 10.0468 32.6963 9.60545 32.3474C9.38433 32.1729 9.17637 31.9808 8.95963 31.8001C8.513 31.4273 8.12867 30.9987 7.78295 30.5294C7.59079 30.269 7.35036 30.0459 7.1503 29.7908C6.91689 29.4951 6.68524 29.1949 6.48518 28.8761C6.18158 28.3899 5.88763 27.8949 5.62439 27.3866C5.39888 26.9527 5.20496 26.4993 5.02771 26.0432C4.81449 25.4942 4.60828 24.9399 4.4442 24.3749C4.29327 23.8542 4.17394 23.3202 4.09321 22.7844C3.97738 22.0185 3.88262 21.2471 3.83085 20.4741C3.79487 19.9348 3.84576 19.3884 3.85717 18.8456C3.87911 17.7767 4.14235 16.7495 4.41436 15.7285C4.6855 14.7101 5.06369 13.728 5.5419 12.7867C5.71915 12.4378 5.87885 12.08 6.07102 11.7409C6.23335 11.4548 6.41937 11.1803 6.61592 10.9164C6.95199 10.4648 7.28543 10.0096 7.65221 9.58369C8.3068 8.82301 9.00438 8.10307 9.82306 7.51684C10.4873 7.0413 11.141 6.54363 11.8439 6.13274C12.523 5.73513 13.2399 5.3818 13.9761 5.10905C14.7842 4.80974 15.6284 4.60252 16.4672 4.39619C17.6465 4.10485 18.8522 4.01541 20.0631 4.06854C20.665 4.09422 21.2687 4.16684 21.8636 4.26425C22.534 4.37494 23.2027 4.51308 23.8608 4.68488C24.7154 4.90803 25.377 5.38711 25.5885 6.30719C25.714 6.85091 25.6341 7.38312 25.3753 7.89142C25.112 8.40858 24.6961 8.73623 24.1626 8.88411C23.716 9.00809 23.2509 8.98861 22.799 8.84869C21.0002 8.29346 19.1777 8.18896 17.3342 8.57063C16.9244 8.65564 16.5287 8.80441 16.1215 8.90005C15.3423 9.08247 14.6482 9.46768 13.948 9.82987C13.5716 10.0247 13.2276 10.2877 12.8863 10.5436C12.4756 10.8509 12.079 11.1768 11.6842 11.5053C11.1252 11.9702 10.6847 12.5441 10.275 13.1391C9.95205 13.6085 9.62124 14.0805 9.37116 14.5897C9.06405 15.2148 8.80608 15.8701 8.58145 16.5308C8.29978 17.3614 8.11112 18.2204 8.09006 19.1041C8.07427 19.7532 8.03391 20.4085 8.10235 21.0506C8.1822 21.7944 8.34716 22.5312 8.51564 23.2618C8.69464 24.0357 9.04387 24.7459 9.39398 25.457C9.95468 26.5967 10.7137 27.5779 11.6227 28.4448C12.0123 28.8159 12.4221 29.1701 12.8521 29.4933C13.1995 29.7545 13.5751 29.9874 13.9638 30.1796C14.636 30.5117 15.309 30.8641 16.018 31.0935C16.7515 31.3308 17.5228 31.4698 18.2871 31.5805C18.8495 31.662 19.4296 31.6452 20.0008 31.6443C20.7264 31.6425 21.4451 31.5336 22.14 31.3352C22.8517 31.1324 23.5607 30.904 24.2416 30.6162C25.0295 30.2823 25.7482 29.8112 26.4352 29.2949C27.1565 28.753 27.8225 28.1473 28.3639 27.4273C28.8246 26.8154 29.2203 26.1513 29.6239 25.4977C30.0188 24.8566 30.2601 24.1429 30.4663 23.4229C30.7076 22.5763 30.8989 21.72 30.9366 20.8309C30.9752 19.9144 30.9761 19.0023 30.8217 18.0964C30.6769 17.2427 30.4628 16.4094 30.118 15.6125C29.9284 15.1741 29.76 14.7198 29.7898 14.2345C29.8301 13.5837 30.118 13.0373 30.6339 12.6432C31.0788 12.3041 31.593 12.1181 32.1563 12.2253C32.9101 12.3696 33.5076 12.7495 33.8077 13.5031C33.9937 13.9715 34.1859 14.4382 34.357 14.912C34.4728 15.2334 34.579 15.562 34.6518 15.8949C34.8019 16.5803 34.9379 17.2693 35.0598 17.96C35.1213 18.3204 35.1414 18.6897 35.1818 19.0554ZM25.3165 23.0297C25.1506 22.5586 24.9356 22.1176 24.5329 21.8042C24.1091 21.4738 23.6124 21.2843 23.0895 21.3233C22.4656 21.3702 21.9347 21.6722 21.4986 22.1451C21.3029 22.3576 21.0687 22.5418 20.8282 22.703C20.3465 23.0244 19.799 23.1891 19.2286 23.1511C18.8022 23.1227 18.3617 23.0359 17.9651 22.8783C17.4579 22.6782 16.9946 22.3682 16.6919 21.8839C16.5032 21.581 16.2724 21.2799 16.1821 20.9452C15.9829 20.2004 15.9855 19.4433 16.333 18.726C16.7542 17.8564 17.4202 17.233 18.3432 16.9921C18.8127 16.869 19.3409 16.8983 19.8323 16.9549C20.307 17.0098 20.7677 17.1896 21.1406 17.5279C21.3644 17.7307 21.618 17.8697 21.9005 17.9839C22.9973 18.4276 24.3153 17.8414 24.668 16.5981C24.8558 15.9339 24.7391 15.2963 24.3556 14.773C24.074 14.3886 23.6502 14.0858 23.2395 13.8272C22.7683 13.5314 22.2594 13.2729 21.7355 13.0922C21.1555 12.893 20.5448 12.7592 19.9376 12.6716C19.2277 12.5697 18.5091 12.6105 17.8027 12.7628C16.8875 12.9603 16.0083 13.2569 15.23 13.7962C14.8404 14.0654 14.4438 14.3364 14.1051 14.664C13.2943 15.4495 12.6476 16.359 12.2791 17.4446C12.0027 18.2602 11.8114 19.0944 11.8281 19.9649C11.8491 20.7353 11.9334 21.4916 12.1738 22.2328C12.4265 23.012 12.781 23.7284 13.2636 24.3864C13.7269 25.0187 14.2806 25.5553 14.9088 26.0114C15.4678 26.4169 16.0855 26.7127 16.7357 26.9518C17.6597 27.2918 18.6065 27.4698 19.584 27.3999C20.4887 27.3352 21.3635 27.1422 22.205 26.7552C22.9359 26.4187 23.6072 26.0149 24.1837 25.457C24.4136 25.2339 24.6101 24.9762 24.8242 24.7353C25.1322 24.3899 25.3981 24.0286 25.3296 23.5239C25.3252 23.4929 25.32 23.4495 25.3366 23.4291C25.4542 23.2892 25.3639 23.1626 25.3165 23.0297ZM28.3525 11.9587C29.6608 11.9587 30.7217 10.8881 30.7217 9.56775C30.7217 8.24741 29.6608 7.17679 28.3525 7.17679C27.0442 7.17679 25.9833 8.24741 25.9833 9.56775C25.9833 10.8881 27.0442 11.9587 28.3525 11.9587Z"/>
</mask>
<path d="M35.1818 19.0554C35.1818 19.6178 35.1818 20.181 35.1818 20.7433C35.1362 21.1648 35.1028 21.589 35.0405 22.0078C34.9572 22.5693 34.8668 23.1298 34.7501 23.6842C34.6606 24.1119 34.5465 24.5369 34.407 24.9505C34.2368 25.4543 34.0464 25.9529 33.8314 26.4382C33.5813 27.0023 33.3277 27.5708 33.0171 28.1021C32.4678 29.0399 31.8676 29.9502 31.1007 30.7251C30.49 31.3423 29.8705 31.956 29.2054 32.5103C28.6912 32.9389 28.105 33.2825 27.5391 33.6456C27.1732 33.8803 26.7967 34.1008 26.4072 34.2929C25.9035 34.5409 25.3937 34.7871 24.8663 34.9739C24.2328 35.1988 23.5852 35.3883 22.9315 35.5433C21.7592 35.8205 20.5676 35.9622 19.3594 35.9445C18.1888 35.9268 17.0288 35.7966 15.8986 35.5088C14.8694 35.2467 13.8383 34.9668 12.8977 34.4346C12.2519 34.0698 11.5736 33.7598 10.9445 33.3693C10.4698 33.0753 10.0468 32.6963 9.60545 32.3474C9.38433 32.1729 9.17637 31.9808 8.95963 31.8001C8.513 31.4273 8.12867 30.9987 7.78295 30.5294C7.59079 30.269 7.35036 30.0459 7.1503 29.7908C6.91689 29.4951 6.68524 29.1949 6.48518 28.8761C6.18158 28.3899 5.88763 27.8949 5.62439 27.3866C5.39888 26.9527 5.20496 26.4993 5.02771 26.0432C4.81449 25.4942 4.60828 24.9399 4.4442 24.3749C4.29327 23.8542 4.17394 23.3202 4.09321 22.7844C3.97738 22.0185 3.88262 21.2471 3.83085 20.4741C3.79487 19.9348 3.84576 19.3884 3.85717 18.8456C3.87911 17.7767 4.14235 16.7495 4.41436 15.7285C4.6855 14.7101 5.06369 13.728 5.5419 12.7867C5.71915 12.4378 5.87885 12.08 6.07102 11.7409C6.23335 11.4548 6.41937 11.1803 6.61592 10.9164C6.95199 10.4648 7.28543 10.0096 7.65221 9.58369C8.3068 8.82301 9.00438 8.10307 9.82306 7.51684C10.4873 7.0413 11.141 6.54363 11.8439 6.13274C12.523 5.73513 13.2399 5.3818 13.9761 5.10905C14.7842 4.80974 15.6284 4.60252 16.4672 4.39619C17.6465 4.10485 18.8522 4.01541 20.0631 4.06854C20.665 4.09422 21.2687 4.16684 21.8636 4.26425C22.534 4.37494 23.2027 4.51308 23.8608 4.68488C24.7154 4.90803 25.377 5.38711 25.5885 6.30719C25.714 6.85091 25.6341 7.38312 25.3753 7.89142C25.112 8.40858 24.6961 8.73623 24.1626 8.88411C23.716 9.00809 23.2509 8.98861 22.799 8.84869C21.0002 8.29346 19.1777 8.18896 17.3342 8.57063C16.9244 8.65564 16.5287 8.80441 16.1215 8.90005C15.3423 9.08247 14.6482 9.46768 13.948 9.82987C13.5716 10.0247 13.2276 10.2877 12.8863 10.5436C12.4756 10.8509 12.079 11.1768 11.6842 11.5053C11.1252 11.9702 10.6847 12.5441 10.275 13.1391C9.95205 13.6085 9.62124 14.0805 9.37116 14.5897C9.06405 15.2148 8.80608 15.8701 8.58145 16.5308C8.29978 17.3614 8.11112 18.2204 8.09006 19.1041C8.07427 19.7532 8.03391 20.4085 8.10235 21.0506C8.1822 21.7944 8.34716 22.5312 8.51564 23.2618C8.69464 24.0357 9.04387 24.7459 9.39398 25.457C9.95468 26.5967 10.7137 27.5779 11.6227 28.4448C12.0123 28.8159 12.4221 29.1701 12.8521 29.4933C13.1995 29.7545 13.5751 29.9874 13.9638 30.1796C14.636 30.5117 15.309 30.8641 16.018 31.0935C16.7515 31.3308 17.5228 31.4698 18.2871 31.5805C18.8495 31.662 19.4296 31.6452 20.0008 31.6443C20.7264 31.6425 21.4451 31.5336 22.14 31.3352C22.8517 31.1324 23.5607 30.904 24.2416 30.6162C25.0295 30.2823 25.7482 29.8112 26.4352 29.2949C27.1565 28.753 27.8225 28.1473 28.3639 27.4273C28.8246 26.8154 29.2203 26.1513 29.6239 25.4977C30.0188 24.8566 30.2601 24.1429 30.4663 23.4229C30.7076 22.5763 30.8989 21.72 30.9366 20.8309C30.9752 19.9144 30.9761 19.0023 30.8217 18.0964C30.6769 17.2427 30.4628 16.4094 30.118 15.6125C29.9284 15.1741 29.76 14.7198 29.7898 14.2345C29.8301 13.5837 30.118 13.0373 30.6339 12.6432C31.0788 12.3041 31.593 12.1181 32.1563 12.2253C32.9101 12.3696 33.5076 12.7495 33.8077 13.5031C33.9937 13.9715 34.1859 14.4382 34.357 14.912C34.4728 15.2334 34.579 15.562 34.6518 15.8949C34.8019 16.5803 34.9379 17.2693 35.0598 17.96C35.1213 18.3204 35.1414 18.6897 35.1818 19.0554ZM25.3165 23.0297C25.1506 22.5586 24.9356 22.1176 24.5329 21.8042C24.1091 21.4738 23.6124 21.2843 23.0895 21.3233C22.4656 21.3702 21.9347 21.6722 21.4986 22.1451C21.3029 22.3576 21.0687 22.5418 20.8282 22.703C20.3465 23.0244 19.799 23.1891 19.2286 23.1511C18.8022 23.1227 18.3617 23.0359 17.9651 22.8783C17.4579 22.6782 16.9946 22.3682 16.6919 21.8839C16.5032 21.581 16.2724 21.2799 16.1821 20.9452C15.9829 20.2004 15.9855 19.4433 16.333 18.726C16.7542 17.8564 17.4202 17.233 18.3432 16.9921C18.8127 16.869 19.3409 16.8983 19.8323 16.9549C20.307 17.0098 20.7677 17.1896 21.1406 17.5279C21.3644 17.7307 21.618 17.8697 21.9005 17.9839C22.9973 18.4276 24.3153 17.8414 24.668 16.5981C24.8558 15.9339 24.7391 15.2963 24.3556 14.773C24.074 14.3886 23.6502 14.0858 23.2395 13.8272C22.7683 13.5314 22.2594 13.2729 21.7355 13.0922C21.1555 12.893 20.5448 12.7592 19.9376 12.6716C19.2277 12.5697 18.5091 12.6105 17.8027 12.7628C16.8875 12.9603 16.0083 13.2569 15.23 13.7962C14.8404 14.0654 14.4438 14.3364 14.1051 14.664C13.2943 15.4495 12.6476 16.359 12.2791 17.4446C12.0027 18.2602 11.8114 19.0944 11.8281 19.9649C11.8491 20.7353 11.9334 21.4916 12.1738 22.2328C12.4265 23.012 12.781 23.7284 13.2636 24.3864C13.7269 25.0187 14.2806 25.5553 14.9088 26.0114C15.4678 26.4169 16.0855 26.7127 16.7357 26.9518C17.6597 27.2918 18.6065 27.4698 19.584 27.3999C20.4887 27.3352 21.3635 27.1422 22.205 26.7552C22.9359 26.4187 23.6072 26.0149 24.1837 25.457C24.4136 25.2339 24.6101 24.9762 24.8242 24.7353C25.1322 24.3899 25.3981 24.0286 25.3296 23.5239C25.3252 23.4929 25.32 23.4495 25.3366 23.4291C25.4542 23.2892 25.3639 23.1626 25.3165 23.0297ZM28.3525 11.9587C29.6608 11.9587 30.7217 10.8881 30.7217 9.56775C30.7217 8.24741 29.6608 7.17679 28.3525 7.17679C27.0442 7.17679 25.9833 8.24741 25.9833 9.56775C25.9833 10.8881 27.0442 11.9587 28.3525 11.9587Z" fill="#222032" stroke="white" stroke-width="2" mask="url(#path-1-inside-1)"/>
</svg>
