<svg width="512" height="512" viewBox="0 0 512 512" fill="none" xmlns="http://www.w3.org/2000/svg">
<path d="M0 80C0 35.8172 35.8172 0 80 0H432C476.183 0 512 35.8172 512 80V432C512 476.183 476.183 512 432 512H80C35.8172 512 0 476.183 0 432V80Z" fill="#625FD0"/>
<path d="M214.751 229.679C200.451 229.679 188.43 235.275 180.762 244.601V187.192C180.762 180.56 176.202 176 169.984 176C163.767 176 159 180.767 159 187.192V324.808C159 331.233 163.56 336 169.984 336C175.995 336 180.554 331.44 180.554 324.808V325.078C188.223 334.404 200.451 336 214.959 336C243.56 336 264.699 313.617 264.699 282.943C264.699 252.269 243.56 229.679 214.751 229.679ZM211.228 316.104C192.99 316.104 180.554 302.632 180.554 282.943C180.554 263.047 192.782 249.575 211.228 249.575C229.259 249.575 242.316 263.668 242.316 282.736C242.316 302.01 229.259 316.104 211.228 316.104Z" fill="#EDEDFA"/>
<path d="M342.805 316.104C340.94 316.104 339.074 316.311 336.587 316.311C322.701 316.311 316.691 311.13 316.691 298.694V250.819H338.453C344.049 250.819 348.194 246.881 348.194 241.492C348.194 236.104 344.049 231.959 338.453 231.959H316.691V214.135C316.691 207.71 311.924 202.943 305.707 202.943C299.489 202.943 294.722 207.917 294.722 214.135V231.959H286.639C281.251 231.959 276.898 236.104 276.898 241.492C276.898 246.881 281.251 250.819 286.639 250.819H294.722V300.56C294.722 323.565 307.986 336 332.235 336C338.038 336 342.391 335.378 345.914 333.927C350.059 332.477 352.339 329.368 352.339 324.808C352.339 319.627 348.608 316.104 342.805 316.104Z" fill="#EDEDFA"/>
</svg>
